<svg viewBox="0 0 702 164" xmlns="http://www.w3.org/2000/svg" role="img"
     aria-label="Diagrama de 3 pasos para iniciar sesión: Paso 1, Ingresa tu documento y contraseña; Paso 2, El sistema valida y verifica tus credenciales; Paso 3, Accedes a tu panel sin pasos adicionales.">
  <title>Cómo iniciar sesión en Wahl Mirai</title>
  <desc>Diagrama secuencial de 3 pasos: 1) Ingresa tus datos, 2) El sistema valida, 3) Accede a tu panel.</desc>
  <defs>
    <marker id="arrowhead" viewBox="0 0 10 10" refX="8" refY="5" markerWidth="6" markerHeight="6" orient="auto-start-reverse">
      <path d="M1 1L8 5L1 9" fill="none" stroke="#c3c6d1" stroke-width="1.6" stroke-linecap="round" stroke-linejoin="round"/>
    </marker>
  </defs>
  
    <path d="M210 82.0 L248 82.0" stroke="#c3c6d1" stroke-width="2.5"
          marker-end="url(#arrowhead)"/>
    <path d="M446 82.0 L484 82.0" stroke="#c3c6d1" stroke-width="2.5"
          marker-end="url(#arrowhead)"/>
  
    <g>
      <rect x="20" y="40" width="190" height="84" rx="10"
            fill="#eff4ff" stroke="#c3c6d1" stroke-width="2.5"/>
      <circle cx="192" cy="58" r="11" fill="#003466"/>
      <text x="192" y="58" text-anchor="middle" dominant-baseline="central"
            font-family="Inter, -apple-system, Segoe UI, sans-serif" font-size="12" font-weight="700" fill="#ffffff">1</text>
      <g transform="translate(34,52) scale(1.0833333333333333)">
        <rect x="5" y="10" width="14" height="10" rx="2" fill="none" stroke="#003466" stroke-width="2"/>
        <path d="M8 10V7a4 4 0 0 1 8 0v3" fill="none" stroke="#003466" stroke-width="2" stroke-linecap="round"/>
        <circle cx="12" cy="15" r="1.4" fill="#003466"/>
      </g>
      <text x="70" y="74" font-family="Inter, -apple-system, Segoe UI, sans-serif" font-size="14" font-weight="bold" fill="#0b1c30">Ingresa tus datos</text>
      <text x="70" y="96" font-family="Inter, -apple-system, Segoe UI, sans-serif" font-size="12" font-weight="bold" fill="#424750">Documento y contraseña</text>
    </g>
    <g>
      <rect x="256" y="40" width="190" height="84" rx="10"
            fill="#eff4ff" stroke="#c3c6d1" stroke-width="2.5"/>
      <circle cx="428" cy="58" r="11" fill="#003466"/>
      <text x="428" y="58" text-anchor="middle" dominant-baseline="central"
            font-family="Inter, -apple-system, Segoe UI, sans-serif" font-size="12" font-weight="700" fill="#ffffff">2</text>
      <g transform="translate(270,52) scale(1.0833333333333333)">
        <path d="M2 12s3.6-6.5 10-6.5S22 12 22 12s-3.6 6.5-10 6.5S2 12 2 12z" fill="none" stroke="#003466" stroke-width="2" stroke-linejoin="round"/>
        <circle cx="12" cy="12" r="2.6" fill="none" stroke="#003466" stroke-width="2"/>
      </g>
      <text x="306" y="74" font-family="Inter, -apple-system, Segoe UI, sans-serif" font-size="14" font-weight="bold" fill="#0b1c30">El sistema valida</text>
      <text x="306" y="96" font-family="Inter, -apple-system, Segoe UI, sans-serif" font-size="12" font-weight="bold" fill="#424750">Verifica tus credenciales</text>
    </g>
    <g>
      <rect x="492" y="40" width="190" height="84" rx="10"
            fill="#eff4ff" stroke="#c3c6d1" stroke-width="2.5"/>
      <circle cx="664" cy="58" r="11" fill="#003466"/>
      <text x="664" y="58" text-anchor="middle" dominant-baseline="central"
            font-family="Inter, -apple-system, Segoe UI, sans-serif" font-size="12" font-weight="700" fill="#ffffff">3</text>
      <g transform="translate(506,52) scale(1.0833333333333333)">
        <circle cx="12" cy="12" r="9" fill="none" stroke="#003466" stroke-width="2"/>
        <path d="M8 12.5l2.5 2.5L16 9.5" fill="none" stroke="#003466" stroke-width="2.2" stroke-linecap="round" stroke-linejoin="round"/>
      </g>
      <text x="542" y="74" font-family="Inter, -apple-system, Segoe UI, sans-serif" font-size="14" font-weight="bold" fill="#0b1c30">Accede a tu panel</text>
      <text x="542" y="96" font-family="Inter, -apple-system, Segoe UI, sans-serif" font-size="12" font-weight="bold" fill="#424750">Sin pasos adicionales</text>
    </g>
</svg>