<svg viewBox="0 0 702 164" xmlns="http://www.w3.org/2000/svg" role="img">
  <defs>
    <marker id="arrowhead" viewBox="0 0 10 10" refX="8" refY="5" markerWidth="6" markerHeight="6" orient="auto-start-reverse">
      <path d="M1 1L8 5L1 9" fill="none" stroke="#c3c6d1" stroke-width="1.6" stroke-linecap="round" stroke-linejoin="round"/>
    </marker>
  </defs>
  
    <path d="M210 82.0 L248 82.0" stroke="#c3c6d1" stroke-width="2"
          marker-end="url(#arrowhead)"/>
    <path d="M446 82.0 L484 82.0" stroke="#c3c6d1" stroke-width="2"
          marker-end="url(#arrowhead)"/>
  
    <g>
      <rect x="20" y="40" width="190" height="84" rx="10"
            fill="#eff4ff" stroke="#c3c6d1" stroke-width="1"/>
      <circle cx="192" cy="58" r="11" fill="#003466"/>
      <text x="192" y="58" text-anchor="middle" dominant-baseline="central"
            font-family="Inter, -apple-system, Segoe UI, sans-serif" font-size="12" font-weight="700" fill="#ffffff">1</text>
      <g transform="translate(34,52) scale(1.0833333333333333)">
        <circle cx="12" cy="8.5" r="3.4" fill="none" stroke="#003466" stroke-width="1.6"/>
        <path d="M5 19c0-3.6 3.1-6 7-6s7 2.4 7 6" fill="none" stroke="#003466" stroke-width="1.6" stroke-linecap="round"/>
    </g>
      <text x="70" y="74" font-family="Inter, -apple-system, Segoe UI, sans-serif" font-size="13.5" font-weight="600" fill="#0b1c30">Ingresa tu documento</text>
      <text x="70" y="94" font-family="Inter, -apple-system, Segoe UI, sans-serif" font-size="11.5" fill="#424750">En 'Recuperar acceso'</text>
    </g>
    <g>
      <rect x="256" y="40" width="190" height="84" rx="10"
            fill="#eff4ff" stroke="#c3c6d1" stroke-width="1"/>
      <circle cx="428" cy="58" r="11" fill="#003466"/>
      <text x="428" y="58" text-anchor="middle" dominant-baseline="central"
            font-family="Inter, -apple-system, Segoe UI, sans-serif" font-size="12" font-weight="700" fill="#ffffff">2</text>
      <g transform="translate(270,52) scale(1.0833333333333333)">
        <circle cx="12" cy="12" r="9" fill="none" stroke="#003466" stroke-width="1.6"/>
        <path d="M12 7v5l3.5 2" fill="none" stroke="#003466" stroke-width="1.6" stroke-linecap="round" stroke-linejoin="round"/>
    </g>
      <text x="306" y="74" font-family="Inter, -apple-system, Segoe UI, sans-serif" font-size="13.5" font-weight="600" fill="#0b1c30">Se genera una clave</text>
      <text x="306" y="94" font-family="Inter, -apple-system, Segoe UI, sans-serif" font-size="11.5" fill="#424750">Nueva contraseña aleatoria</text>
    </g>
    <g>
      <rect x="492" y="40" width="190" height="84" rx="10"
            fill="#eff4ff" stroke="#c3c6d1" stroke-width="1"/>
      <circle cx="664" cy="58" r="11" fill="#003466"/>
      <text x="664" y="58" text-anchor="middle" dominant-baseline="central"
            font-family="Inter, -apple-system, Segoe UI, sans-serif" font-size="12" font-weight="700" fill="#ffffff">3</text>
      <g transform="translate(506,52) scale(1.0833333333333333)">
        <rect x="3" y="5.5" width="18" height="13" rx="2" fill="none" stroke="#003466" stroke-width="1.6"/>
        <path d="M4 7l8 6 8-6" fill="none" stroke="#003466" stroke-width="1.6" stroke-linecap="round" stroke-linejoin="round"/>
    </g>
      <text x="542" y="74" font-family="Inter, -apple-system, Segoe UI, sans-serif" font-size="13.5" font-weight="600" fill="#0b1c30">Revisa tu correo</text>
      <text x="542" y="94" font-family="Inter, -apple-system, Segoe UI, sans-serif" font-size="11.5" fill="#424750">Ahí llega tu nueva clave</text>
    </g>
</svg>